<svg xmlns="http://www.w3.org/2000/svg" width="152" height="25" fill="none"><path fill="#6553F5" d="M3.98 21.202V16.85h2.74c3.611 0 5.46-3.077 5.46-6.155.065-3.174-1.805-6.324-5.46-6.324-2.261-.024-4.458 0-6.72 0v16.831h3.98Zm-.065-8.175V8.194h2.806c1.087 0 1.653 1.179 1.653 2.38 0 1.227-.61 2.453-1.653 2.453H3.915Zm20.319 2.212c1.5-1.13 2.24-2.981 2.262-4.905 0-2.957-1.805-5.963-5.481-5.963-2.24-.024-4.437 0-6.7 0v16.831h3.981v-5.266h2.088l2.61 5.266h4.22v-.625l-2.98-5.338Zm-6.003-2.885v-4.16h2.762c1.131 0 1.653.986 1.653 2.044s-.544 2.116-1.653 2.116h-2.762Zm46.08-.409h-4.873V8.218h5.525V4.396h-9.505v16.83h3.98v-5.434h4.872v-3.847Zm8.35 5.723V7.954h1.76V4.396h-7.503v3.558h1.762v9.714h-1.936v3.558h7.852v-3.558H72.66Zm16.595 3.606h1.174V4.396h-3.98v8.223L78.51 4.322h-1.24v16.903h3.98v-8.68l8.005 8.728Zm13.265-2.14.892 2.092h4.11v-.601l-6.917-16.398H98.78l-6.982 16.398v.601h4.154l.87-2.092h5.699Zm-2.85-7.742 1.588 4.064h-3.153l1.565-4.064Zm21.233 9.882h1.174V4.396h-3.98v8.223l-7.939-8.296h-1.24v16.903h3.98v-8.68l8.005 8.728Zm3.673-5.217c-.065 3.775 3.023 5.554 6.242 5.554 3.11 0 6.22-1.852 6.22-5.386 0-4.087-2.827-4.929-6.067-5.242-1.458-.168-2.328-.432-2.328-1.562 0-1.275 1.175-1.54 2.067-1.54 1.065 0 2.044.482 2.066 1.636h3.719c.065-3.655-2.914-5.506-5.851-5.506-3.11 0-5.916 1.851-5.916 5.506 0 3.51 2.785 4.737 5.568 4.929 1.11.072 2.806.144 2.806 1.755 0 1.01-1.196 1.587-2.327 1.587-1.218 0-2.414-.577-2.414-1.731h-3.785Zm19.768-6.083-2.763-5.578h-4.263v.649l5.111 9.521v6.66h3.98v-6.66l5.09-9.521v-.65h-4.22l-2.762 5.579h-.173ZM35.2 19.35l.456-.815-.29-.177-.799 1.431.091.057 1.218-.346-.451.808.29.18.799-1.43-.087-.054-1.226.346ZM34.092 17.077l-1.133 1.147.234.255.433-.438.418.456-.432.437.232.253 1.134-1.147-.233-.253-.48.485-.418-.455.48-.485-.235-.255ZM32.245 16.132c-.258.151-.305.428-.164.692l.327.611 1.37-.807-.357-.67c-.154-.288-.41-.36-.65-.217a.381.381 0 0 0-.196.386.33.33 0 0 0-.33.005Zm.099.566c-.057-.107-.03-.213.072-.27.093-.052.184-.018.24.087l.15.282-.311.183-.151-.282Zm.527-.37a.243.243 0 0 1-.039-.14.188.188 0 0 1 .102-.143c.095-.048.187-.02.243.084l.183.342-.314.185-.175-.328ZM31.27 14.605l.266.973 1.513-.457-.271-.991-.294.089.177.649-.345.104-.162-.59-.283.085.161.59-.307.093-.172-.63-.284.085ZM31.9 13.767c.52-.015.79-.434.778-.868-.009-.344-.191-.691-.61-.75l.01.34c.192.051.289.216.294.421a.478.478 0 0 1-.482.5c-.3.009-.507-.181-.514-.474-.005-.198.07-.35.245-.427l-.008-.342c-.387.086-.55.445-.54.778.004.434.302.837.826.822ZM31.535 11.07l1.251.293.071-.334-1.251-.293.09-.428-.285-.067-.253 1.194.285.066.092-.43ZM32.68 8.921l.807.42.149-.316-1.418-.736-.047.1.415 1.25-.8-.416-.15.317 1.415.736.045-.096-.415-1.259ZM34.663 7.72l.151.143.2-.234-.364-.342-.126.147-.96-.903-.226.266.944.889-.378.443-.945-.89-.225.264 1.172 1.104.757-.886ZM35.516 5.883l.483.797.283-.189-.85-1.4-.088.06-.263 1.294-.48-.79-.284.19.847 1.398.086-.057.266-1.303ZM37.418 5.072l.258.905.321-.101-.454-1.59-.101.032-.589 1.171-.256-.898-.323.102.453 1.587.097-.03.594-1.178ZM39.789 4.45l.401.037-.085 1.051-.59-.052c.071-.042.111-.142.124-.215l.15-.82Zm-.733.987-.043.532.316.028.02-.233.93.083-.02.233.301.027.043-.532-.168-.014.11-1.348-1.023-.092-.214 1.107c-.03.156-.063.224-.198.214l-.053-.005ZM42.667 5.77c.19-.518-.072-.942-.457-1.096-.39-.158-.855-.029-1.045.491-.19.52.063.941.456 1.1.445.179.874-.025 1.046-.495Zm-1.185-.477c.12-.326.386-.408.617-.315.229.092.375.338.255.666-.123.337-.39.412-.618.32-.235-.095-.377-.334-.254-.67ZM43.125 6.041c-.318.435-.177.917.151 1.181.26.21.632.28.94-.023l-.258-.207c-.16.125-.342.1-.497-.026-.223-.18-.231-.483-.067-.708.183-.249.454-.298.675-.12.15.12.215.277.162.47l.258.208c.18-.37.017-.728-.235-.93-.324-.271-.81-.281-1.13.155ZM45.339 7.419l-1.003.838.203.268 1.003-.839.26.344.23-.191-.726-.957-.23.191.263.346ZM45.466 9.28c-.176.004-.24-.075-.25-.252l-.267.085c.04.44.264.521.614.51l1.34.004.03-.016-.157-.337-.765.02-.005-.01.467-.658-.164-.35-.038.02-.648.983-.157.002ZM47.15 10.274l-1.542.334.068.347 1.243-.27.121.618-1.242.27.068.346 1.542-.334-.258-1.311ZM45.824 13.816l1.57.115.024-.353-.6-.044.043-.631.599.044.023-.351-1.57-.115-.024.351.664.049-.042.63-.664-.048-.023.354ZM47.084 15.35l.122-.32-1.461-.616-.248.649c-.123.322.007.595.231.725.267.153.626.083.773-.303l.126-.328.421.177.036.015Zm-.859.02c-.058.153-.215.189-.341.12-.132-.073-.157-.198-.093-.367.035-.092.073-.183.107-.273l.453.19-.113.296-.013.033Zm.315 1.401.125-.326-1.461-.615-.125.326 1.461.615ZM44.36 18.836c.21.217.477.188.679-.027l.469-.5-1.12-1.158-.513.547c-.221.235-.216.512-.02.716.116.12.263.155.409.09a.371.371 0 0 0 .096.332Zm.491-.258c-.082.088-.187.089-.267.003-.074-.08-.068-.18.012-.266l.217-.23.255.263-.217.23Zm-.485-.428c-.036.039-.07.069-.117.078a.175.175 0 0 1-.16-.063c-.07-.083-.07-.183.01-.268l.262-.28.256.265-.25.268ZM43.707 18.986c-.264-.472-.743-.517-1.1-.298-.283.175-.485.51-.333.922l.28-.172c-.05-.202.04-.37.21-.474.242-.149.513-.042.65.202.15.271.092.554-.149.702-.163.1-.325.104-.475-.02l-.281.173c.259.314.636.29.91.122.36-.214.553-.682.288-1.157ZM41.054 21.118l.93-.276-.43-1.59-.946.28.083.31.62-.184.098.363-.563.167.08.298.563-.167.087.322-.602.18.08.297ZM39.393 20.526l.644.776.124-.003-.025-1.657-.337.006.013.895-.404-.513h-.042l-.389.526-.013-.895-.337.006.024 1.657.122-.002.62-.796Z"></path><path fill="#6553F5" fill-rule="evenodd" d="M39.272 18.158c2.826 0 5.13-2.41 5.13-5.4s-2.304-5.4-5.13-5.4-5.132 2.41-5.132 5.4 2.306 5.4 5.132 5.4Zm0 .266c2.978 0 5.393-2.537 5.393-5.666 0-3.13-2.415-5.667-5.393-5.667-2.979 0-5.394 2.537-5.394 5.667s2.415 5.666 5.394 5.666Z" clip-rule="evenodd"></path></svg>